<?xml version="1.0" encoding="utf-8"?>
<!-- Generator: Adobe Illustrator 27.0.0, SVG Export Plug-In . SVG Version: 6.00 Build 0)  -->
<svg version="1.1" id="Capa_1" xmlns="http://www.w3.org/2000/svg" xmlns:xlink="http://www.w3.org/1999/xlink" x="0px" y="0px"
	 viewBox="0 0 1080 1080" style="enable-background:new 0 0 1080 1080;" xml:space="preserve">
<style type="text/css">
	.st0{fill:none;}
	.st1{fill:#191919;}
	.st2{fill:#F9C113;}
</style>
<path class="st0" d="M1034.57,287.68c0,29.46-5.05,57.75-14.34,84.01c-34.6,98.05-128.09,168.29-237.96,168.29h-64.06V371.68h64.13
	c23.22,0,44.25-9.41,59.45-24.62c15.21-15.21,24.62-36.23,24.62-59.45c0-46.42-37.63-84.05-84.08-84.05H549.96V792.3
	c0,109.84-70.18,203.26-168.15,237.91c-26.3,9.32-54.64,14.39-84.15,14.39c-102.53,0-190.77-61.16-230.22-149.02
	C53.68,865,45.86,831.17,45.43,795.57v-87.63h168.15v84.43c0,23.22,9.41,44.25,24.62,59.45c15.23,15.21,36.23,24.62,59.45,24.62
	c46.44,0,84.08-37.63,84.08-84.08V554.39c0.02,0,0.05,0,0.07,0.02V35.4h400.46c6.73,0,13.41,0.26,20,0.77
	C932.24,46.38,1034.57,155.08,1034.57,287.68z"/>
<path class="st1" d="M1590.59,321.67v391.66c0,56.84-36.31,105.18-87.01,123.11c-13.61,4.82-28.27,7.45-43.54,7.45
	c-53.05,0-98.71-31.65-119.13-77.11c-7.12-15.82-11.17-33.33-11.39-51.75v-45.34h87.01v43.69c0,12.02,4.87,22.89,12.74,30.76
	c7.88,7.87,18.75,12.74,30.76,12.74c24.03,0,43.51-19.47,43.51-43.51V590.22c0.01,0,0.02,0,0.04,0.01V321.67H1590.59z"/>
<path class="st2" d="M1841.35,452.21c0,15.24-2.61,29.88-7.42,43.47c-17.9,50.73-66.28,87.08-123.13,87.08h-33.15v-87.08h33.18
	c12.02,0,22.89-4.87,30.76-12.74s12.74-18.75,12.74-30.76c0-24.02-19.47-43.49-43.51-43.49h-120.24v-87.01h120.2
	c3.48,0,6.94,0.13,10.35,0.4C1788.4,327.35,1841.35,383.6,1841.35,452.21z"/>
</svg>
